<svg width="220" height="270" viewBox="0 -20 220 270" xmlns="http://www.w3.org/2000/svg">
  <!-- Background rectangle -->
  <rect width="100%" height="100%" fill="none"/>
  
  <!-- Gradient definition -->
  <defs>
    <linearGradient id="mainGradient" x1="130.084457" y1="202.023651" x2="65.970993" y2="4.703194" gradientUnits="userSpaceOnUse">
      <stop stop-color="#AE9675"/>
      <stop offset="1.000000" stop-color="#F7A941"/>
    </linearGradient>
    
    <!-- Mask for main path fill animation (bottom to top) -->
    <clipPath id="fillMask">
      <rect x="0" y="0" width="100%" height="100%">
        <animate attributeName="y"
                 from="100%"
                 to="0"
                 dur="2s"
                 fill="freeze"
                 begin="0s"
                 calcMode="spline"
                 keySplines="0.42 0 0.58 1"/>
        <animate attributeName="height"
                 from="0"
                 to="100%"
                 dur="2s"
                 fill="freeze"
                 begin="0s"
                 calcMode="spline"
                 keySplines="0.04,0.76,0.95,0.1"/>
      </rect>
    </clipPath>
  </defs>

  <!-- Main gradient path - outline -->
  <path d="M74.91 190.32C70.63 185.56 66.74 179.7 63.35 172.93C54.77 155.76 49.27 132.55 48.65 106.9L9.84 106.9C11.06 130.46 21.12 151.69 36.76 167.33C47.28 177.85 60.32 185.84 74.91 190.32ZM9.84 97.18L48.65 97.18C48.95 84.82 50.38 73.02 52.75 62.2C53.8 66.17 55.56 69.86 57.87 73.12C59.33 75.17 59.9 77.41 59.6 79.9C58.94 85.48 58.52 91.25 58.37 97.18L92.32 97.18C92.32 102.53 87.96 106.9 82.6 106.9L58.37 106.9C58.98 131.06 64.07 152.73 72.01 168.6C78.83 182.24 87.62 191.42 97.18 193.77L97.18 121.48C97.18 116.13 101.55 111.76 106.9 111.76L106.9 193.77C116.47 191.42 125.26 182.24 132.08 168.6C133.65 165.45 135.11 162.08 136.45 158.5C138.04 154.26 142.18 151.72 146.68 152.25C147.33 152.32 147.99 152.38 148.66 152.42C146.46 159.92 143.79 166.81 140.73 172.93C137.35 179.7 133.46 185.56 129.18 190.32C143.76 185.84 156.81 177.85 167.33 167.33C180.09 154.56 189.14 138.08 192.69 119.64C193.59 115.02 197.53 111.76 202.24 111.76L203.63 111.76C201.33 136.06 190.52 157.88 174.2 174.2C155.73 192.67 130.22 204.09 102.04 204.09C73.86 204.09 48.35 192.67 29.88 174.2C11.42 155.73 0 130.22 0 102.04C0 73.86 11.42 48.35 29.88 29.88C46.2 13.57 68.03 2.75 92.32 0.45L92.32 12.12C89.73 13.41 87.22 15.21 84.81 17.45C83.36 18.8 81.78 19.59 79.83 19.92C74.98 20.76 70.47 22.62 66.55 25.28C69.12 20.95 71.92 17.09 74.91 13.77C60.32 18.24 47.28 26.24 36.76 36.75C21.12 52.39 11.06 73.62 9.84 97.18Z" 
        stroke="url(#mainGradient)"
        stroke-width="1"
        fill="none"/>

  <!-- Main gradient path - animated fill -->
  <path d="M74.91 190.32C70.63 185.56 66.74 179.7 63.35 172.93C54.77 155.76 49.27 132.55 48.65 106.9L9.84 106.9C11.06 130.46 21.12 151.69 36.76 167.33C47.28 177.85 60.32 185.84 74.91 190.32ZM9.84 97.18L48.65 97.18C48.95 84.82 50.38 73.02 52.75 62.2C53.8 66.17 55.56 69.86 57.87 73.12C59.33 75.17 59.9 77.41 59.6 79.9C58.94 85.48 58.52 91.25 58.37 97.18L92.32 97.18C92.32 102.53 87.96 106.9 82.6 106.9L58.37 106.9C58.98 131.06 64.07 152.73 72.01 168.6C78.83 182.24 87.62 191.42 97.18 193.77L97.18 121.48C97.18 116.13 101.55 111.76 106.9 111.76L106.9 193.77C116.47 191.42 125.26 182.24 132.08 168.6C133.65 165.45 135.11 162.08 136.45 158.5C138.04 154.26 142.18 151.72 146.68 152.25C147.33 152.32 147.99 152.38 148.66 152.42C146.46 159.92 143.79 166.81 140.73 172.93C137.35 179.7 133.46 185.56 129.18 190.32C143.76 185.84 156.81 177.85 167.33 167.33C180.09 154.56 189.14 138.08 192.69 119.64C193.59 115.02 197.53 111.76 202.24 111.76L203.63 111.76C201.33 136.06 190.52 157.88 174.2 174.2C155.73 192.67 130.22 204.09 102.04 204.09C73.86 204.09 48.35 192.67 29.88 174.2C11.42 155.73 0 130.22 0 102.04C0 73.86 11.42 48.35 29.88 29.88C46.2 13.57 68.03 2.75 92.32 0.45L92.32 12.12C89.73 13.41 87.22 15.21 84.81 17.45C83.36 18.8 81.78 19.59 79.83 19.92C74.98 20.76 70.47 22.62 66.55 25.28C69.12 20.95 71.92 17.09 74.91 13.77C60.32 18.24 47.28 26.24 36.76 36.75C21.12 52.39 11.06 73.62 9.84 97.18Z" 
        fill="url(#mainGradient)"
        clip-path="url(#fillMask)"/>

  <!-- Blue path - outline and fill with bounce -->
  <g transform-origin="center center">
    <path d="M85.62 29.15C72.21 29.15 61.33 40.03 61.33 53.45C61.33 66.87 72.21 77.74 85.62 77.74C89.05 77.74 92.3 77.04 95.26 75.76C96.8 75.09 98.44 75.23 99.85 76.16C101.26 77.09 102.04 78.54 102.04 80.22L102.04 102.04L123.86 102.04C125.55 102.04 127 102.82 127.93 104.23C128.85 105.64 128.99 107.28 128.32 108.83C127.05 111.78 126.34 115.04 126.34 118.46C126.34 131.88 137.22 142.76 150.64 142.76C164.06 142.76 174.94 131.88 174.94 118.46C174.93 115.04 174.23 111.78 172.95 108.83C172.28 107.28 172.43 105.64 173.35 104.23C174.28 102.82 175.73 102.04 177.41 102.04L204.09 102.04C204.09 45.68 158.4 0 102.05 0L102.05 26.68C102.05 28.36 101.26 29.81 99.85 30.74C98.45 31.66 96.81 31.81 95.26 31.14C92.3 29.86 89.05 29.15 85.62 29.15Z" 
          stroke="#058AB6"
          stroke-width="1"
          stroke-dasharray="1000"
          stroke-dashoffset="1000"
          fill="none">
      <animate attributeName="stroke-dashoffset"
               from="1000" to="0"
               dur="2s"
               fill="freeze"
               begin="1s"
               calcMode="spline"
               keySplines="0.42 0 0.58 1"/>
    </path>
    <path d="M85.62 29.15C72.21 29.15 61.33 40.03 61.33 53.45C61.33 66.87 72.21 77.74 85.62 77.74C89.05 77.74 92.3 77.04 95.26 75.76C96.8 75.09 98.44 75.23 99.85 76.16C101.26 77.09 102.04 78.54 102.04 80.22L102.04 102.04L123.86 102.04C125.55 102.04 127 102.82 127.93 104.23C128.85 105.64 128.99 107.28 128.32 108.83C127.05 111.78 126.34 115.04 126.34 118.46C126.34 131.88 137.22 142.76 150.64 142.76C164.06 142.76 174.94 131.88 174.94 118.46C174.93 115.04 174.23 111.78 172.95 108.83C172.28 107.28 172.43 105.64 173.35 104.23C174.28 102.82 175.73 102.04 177.41 102.04L204.09 102.04C204.09 45.68 158.4 0 102.05 0L102.05 26.68C102.05 28.36 101.26 29.81 99.85 30.74C98.45 31.66 96.81 31.81 95.26 31.14C92.3 29.86 89.05 29.15 85.62 29.15Z" 
          fill="#058AB6"
          fill-opacity="0">
      <animate attributeName="fill-opacity"
               from="0" to="1"
               dur="0.3s"
               fill="freeze"
               begin="2s"/>
    </path>
    <animateTransform attributeName="transform"
                      type="scale"
                      from="1 1"
                      to="1.1 1.1"
                      dur="0.2s"
                      begin="2.3s"
                      fill="freeze"/>
    <animateTransform attributeName="transform"
                      type="scale"
                      from="1.1 1.1"
                      to="1 1"
                      dur="0.3s"
                      begin="2.5s"
                      fill="freeze"/>
  </g>
</svg>